<?xml version="1.0" encoding="UTF-8"?>
<svg version="1.1" xmlns="http://www.w3.org/2000/svg" width="1024" height="1024">
<path d="M0 0 C337.92 0 675.84 0 1024 0 C1024 337.92 1024 675.84 1024 1024 C686.08 1024 348.16 1024 0 1024 C0 686.08 0 348.16 0 0 Z " fill="#0E1622" transform="translate(0,0)"/>
<path d="M0 0 C1.37494377 -0.01226624 1.37494377 -0.01226624 2.77766418 -0.02478027 C5.78837461 -0.04943835 8.79903854 -0.0660992 11.80981445 -0.08056641 C13.36315963 -0.08855192 13.36315963 -0.08855192 14.94788551 -0.09669876 C20.42879111 -0.12334455 25.90967461 -0.14274714 31.390625 -0.15722656 C35.90352681 -0.1705579 40.41597567 -0.19840897 44.92871094 -0.23925781 C50.40394819 -0.28879941 55.87877531 -0.31337315 61.35422707 -0.32045364 C63.42846987 -0.32712744 65.50270491 -0.34224715 67.57681847 -0.36634445 C81.58823629 -0.51985714 94.98683087 -0.34010398 105.7668457 10.02880859 C110.86171532 16.44371261 114.60582192 24.27283002 114.6184082 32.53662109 C114.62050293 33.36484375 114.62259766 34.19306641 114.62475586 35.04638672 C114.61774658 36.35639648 114.61774658 36.35639648 114.6105957 37.69287109 C114.60721191 38.59199219 114.60382813 39.49111328 114.6003418 40.41748047 C114.53397055 48.99326335 114.01604991 57.34310381 112.5456543 65.80029297 C111.52430743 71.84292421 110.68362973 77.89671097 109.8996582 83.97412109 C109.75782608 85.05887726 109.61599396 86.14363342 109.46986389 87.26126099 C109.16947909 89.55877296 108.86991802 91.85639275 108.57113647 94.15411377 C107.79697946 100.10267249 107.0147242 106.05016284 106.23168945 111.99755859 C106.00317039 113.73336685 106.00317039 113.73336685 105.77003479 115.50424194 C104.61180709 124.28142333 103.42322962 133.05327778 102.1730957 141.81787109 C101.95290771 143.37344727 101.95290771 143.37344727 101.72827148 144.96044922 C98.91576217 164.4281333 95.57835337 182.34803254 80.4855957 196.19287109 C67.2553147 205.89643621 51.34788388 205.6426462 35.69262695 205.55615234 C33.81084697 205.55563219 31.92906644 205.55615587 30.04728699 205.55766296 C26.12828319 205.55757388 22.20948783 205.54727302 18.29052734 205.52905273 C13.29449443 205.50632079 8.29876384 205.50583706 3.30269337 205.51257038 C-0.5743117 205.5159277 -4.45124916 205.50924796 -8.32824135 205.49944115 C-10.16963662 205.49562278 -12.01103944 205.49442678 -13.85243797 205.49602699 C-29.32219807 205.49827646 -43.16504025 205.34869931 -55.4519043 194.63037109 C-56.4728418 193.42380859 -56.4728418 193.42380859 -57.5144043 192.19287109 C-58.5662793 191.04818359 -58.5662793 191.04818359 -59.6394043 189.88037109 C-61.99043369 186.5105623 -63.29577124 183.09715408 -64.5144043 179.19287109 C-64.7000293 178.61021484 -64.8856543 178.02755859 -65.0769043 177.42724609 C-68.4738748 160.07843243 -63.83991696 140.50354443 -61.5144043 123.19287109 C-61.2616661 121.2762221 -61.00904364 119.35955783 -60.7565918 117.44287109 C-59.94525392 111.35957061 -59.09037319 105.28255167 -58.23449707 99.2053833 C-57.58261401 94.57564834 -56.93282706 89.94562586 -56.28488159 85.31533813 C-55.96390182 83.02835359 -55.63979277 80.74182899 -55.31542969 78.45532227 C-54.24769573 70.8686535 -53.28232177 63.28378263 -52.4675293 55.66552734 C-50.72094372 39.47357708 -48.22859772 22.23899892 -35.4675293 10.68505859 C-24.31086086 2.16136391 -13.71745053 0.06887055 0 0 Z " fill="#F1EEE3" transform="translate(187.514404296875,410.80712890625)"/>
<path d="M0 0 C0.89684006 -0.00571014 1.79368011 -0.01142029 2.71769714 -0.01730347 C3.70976669 -0.01842133 4.70183624 -0.01953918 5.72396851 -0.02069092 C6.76315933 -0.02565582 7.80235016 -0.03062073 8.87303162 -0.03573608 C12.33425549 -0.05041679 15.79543336 -0.05717369 19.25668335 -0.06268311 C21.66312664 -0.06843496 24.06956992 -0.07419269 26.47601318 -0.07995605 C31.5386476 -0.09048637 36.60126607 -0.096314 41.66390991 -0.09979248 C48.11835251 -0.10524532 54.57258073 -0.12919548 61.02695656 -0.15776443 C66.00816433 -0.17650102 70.98932196 -0.18160251 75.97056198 -0.18312836 C78.34734631 -0.18613664 80.72413015 -0.19410271 83.10087967 -0.20731354 C120.3787433 -0.39952039 120.3787433 -0.39952039 132.7449646 10.87481689 C141.28686604 20.31476665 141.53363164 30.48226298 141.08236694 42.59405518 C140.5842667 49.96208376 139.55450555 57.26746689 138.53012085 64.57794189 C138.42343079 65.34839844 138.31674072 66.11885498 138.20681763 66.91265869 C132.12605968 110.31203527 132.12605968 110.31203527 115.84262085 123.14044189 C108.4935474 127.54521247 101.31282265 129.9858668 92.84262085 131.14044189 C93.3209436 132.28819092 93.79926636 133.43593994 94.29208374 134.61846924 C96.10394507 138.96768293 97.91299096 143.31806341 99.72128296 147.66876221 C100.49723453 149.53463049 101.27390157 151.40020143 102.05136108 153.26544189 C106.34091779 163.55815972 110.58068352 173.86118224 114.55577087 184.28018188 C116.46963982 189.2779073 118.58307126 194.14866625 120.89730835 198.97637939 C121.84262085 201.14044189 121.84262085 201.14044189 122.84262085 205.14044189 C106.34262085 205.14044189 89.84262085 205.14044189 72.84262085 205.14044189 C68.30140947 193.12369795 63.77853499 181.11916981 59.59408569 168.97393799 C56.56259947 160.22623511 53.30709348 151.56181849 50.04208374 142.89898682 C49.62692505 141.79015137 49.21176636 140.68131592 48.7840271 139.53887939 C48.40963501 138.54549561 48.03524292 137.55211182 47.64950562 136.52862549 C46.84262085 134.14044189 46.84262085 134.14044189 46.84262085 132.14044189 C41.23262085 132.47044189 35.62262085 132.80044189 29.84262085 133.14044189 C25.62201093 157.10945151 21.40949649 181.06403135 17.84262085 205.14044189 C2.00262085 205.14044189 -13.83737915 205.14044189 -30.15737915 205.14044189 C-30.15737915 195.01756255 -30.15737915 195.01756255 -29.61001587 191.13873291 C-29.48900009 190.25773926 -29.36798431 189.37674561 -29.24330139 188.46905518 C-29.04221519 187.0708252 -29.04221519 187.0708252 -28.83706665 185.64434814 C-28.69805435 184.63928223 -28.55904205 183.63421631 -28.41581726 182.59869385 C-28.1159898 180.43186762 -27.81369063 178.26538223 -27.50915527 176.09921265 C-26.68808954 170.25042661 -25.88847916 164.3987308 -25.0909729 158.54669189 C-24.92712601 157.34508926 -24.76327911 156.14348663 -24.59446716 154.9054718 C-22.96282562 142.85329474 -21.512779 130.78183334 -20.09487915 118.70294189 C-18.0797719 101.56298797 -15.90350639 84.45288092 -13.58297729 67.35165405 C-11.94133938 55.24098362 -10.42691415 43.13462485 -9.13369751 30.98101807 C-8.38216812 23.97486129 -7.51465286 16.99309546 -6.53237915 10.01544189 C-6.40903198 9.12469971 -6.28568481 8.23395752 -6.15859985 7.31622314 C-5.10081945 0.01936843 -5.10081945 0.01936843 0 0 Z " fill="#F1EEE3" transform="translate(483.1573791503906,409.85955810546875)"/>
<path d="M0 0 C18.15 0 36.3 0 55 0 C55 7.87385082 55 7.87385082 54.45263672 11.42675781 C54.33162598 12.23009552 54.21061523 13.03343323 54.0859375 13.8611145 C53.951875 14.71647797 53.8178125 15.57184143 53.6796875 16.453125 C53.54062988 17.3693161 53.40157227 18.2855072 53.25830078 19.22946167 C52.95815975 21.20491394 52.65582032 23.1800332 52.35150146 25.15484619 C51.53504314 30.45821731 50.73692475 35.76435154 49.9375 41.0703125 C49.69203934 42.69614761 49.69203934 42.69614761 49.44161987 44.35482788 C47.84897719 54.93516732 46.34471397 65.52696162 44.875 76.125 C44.75261963 77.00653748 44.63023926 77.88807495 44.50415039 78.79632568 C42.35302986 94.31090932 40.25599377 109.8328148 38.1640625 125.35546875 C38.06715118 126.07455917 37.97023987 126.7936496 37.87039185 127.53453064 C37.38350564 131.14868514 36.89757005 134.76296409 36.41308594 138.37744141 C35.86271941 142.4813406 35.30654781 146.58443459 34.75 150.6875 C34.58677246 151.91194824 34.42354492 153.13639648 34.25537109 154.39794922 C34.10406738 155.50799316 33.95276367 156.61803711 33.796875 157.76171875 C33.60109863 159.215177 33.60109863 159.215177 33.40136719 160.69799805 C33 163 33 163 32 165 C54.77 165 77.54 165 101 165 C97 196 97 196 95 205 C55.07 205 15.14 205 -26 205 C-26 194.87715134 -26 194.87715134 -25.30078125 189.859375 C-25.14593262 188.72459717 -24.99108398 187.58981934 -24.83154297 186.4206543 C-24.66025879 185.20933838 -24.48897461 183.99802246 -24.3125 182.75 C-24.04155696 180.77607477 -23.77062404 178.80214813 -23.50006104 176.82817078 C-23.20892298 174.71084699 -22.91505574 172.59391633 -22.62060547 170.47705078 C-21.62997779 163.345674 -20.6647687 156.21083678 -19.69906616 149.0760498 C-19.38489269 146.76041469 -19.068283 144.44512392 -18.7512207 142.12988281 C-17.48387674 132.83808656 -16.33589707 123.53788312 -15.25897217 114.22225952 C-12.71293688 92.37454047 -9.99873397 70.5459709 -7.04296875 48.75 C-6.23324548 42.77343336 -5.45026065 36.79372915 -4.67578125 30.8125 C-4.44731036 29.05362375 -4.21879483 27.29475329 -3.99023438 25.53588867 C-3.65291324 22.93978964 -3.31649147 20.34359252 -2.9831543 17.74697876 C-2.67502714 15.34789249 -2.36326366 12.94930355 -2.05078125 10.55078125 C-1.95928299 9.83039673 -1.86778473 9.11001221 -1.77351379 8.36779785 C-1.38957996 5.44269736 -0.93597089 2.80791267 0 0 Z " fill="#F1EEE3" transform="translate(335,410)"/>
<path d="M0 0 C2.20547047 -0.00964773 4.40998423 -0.04069157 6.61523438 -0.07226562 C19.42151559 -0.1694824 30.60964259 1.41171965 41.10742188 9.24023438 C46.4842277 14.6170402 48.28661657 19.98929857 48.41992188 27.42773438 C48.3946873 33.98031137 47.22247526 39.54991408 46.10742188 46.24023438 C35.54742188 46.24023438 24.98742187 46.24023438 14.10742188 46.24023438 C14.10742188 40.63023437 14.10742188 35.02023437 14.10742188 29.24023438 C9.30233703 26.83769195 5.98895985 26.90770184 0.73242188 26.92773438 C-0.10546875 26.91162109 -0.94335938 26.89550781 -1.80664062 26.87890625 C-6.88138368 26.87491667 -10.57453878 27.27910213 -14.89257812 30.24023438 C-16.47655571 32.88680998 -17.2112158 35.22880617 -17.63867188 38.26757812 C-17.75202881 39.0482666 -17.86538574 39.82895508 -17.98217773 40.63330078 C-18.09698486 41.47296387 -18.21179199 42.31262695 -18.33007812 43.17773438 C-18.52065796 44.50683838 -18.52065796 44.50683838 -18.71508789 45.86279297 C-19.11413339 48.65439035 -19.50387681 51.44717988 -19.89257812 54.24023438 C-20.24997288 56.77033941 -20.60929165 59.30016034 -20.96972656 61.82983398 C-21.2120472 63.53477966 -21.4522463 65.24002807 -21.69042969 66.94555664 C-22.39063563 71.91418509 -23.15091147 76.86796837 -23.97070312 81.81835938 C-25.86941865 93.38515156 -27.590168 104.49747156 -26.89257812 116.24023438 C-21.81784632 117.70582344 -16.70041583 117.54378086 -11.45507812 117.61523438 C-10.41802734 117.65261719 -9.38097656 117.69 -8.3125 117.72851562 C-3.81929007 117.78046025 -0.779348 117.73651041 3.18554688 115.51757812 C6.16180954 110.44220338 6.67243329 105.20378253 7.41992188 99.42773438 C7.58814453 98.25791016 7.75636719 97.08808594 7.9296875 95.8828125 C8.34086795 93.00454932 8.72664165 90.12267687 9.10742188 87.24023438 C3.49742187 87.24023438 -2.11257813 87.24023438 -7.89257812 87.24023438 C-7.56693285 83.23944961 -7.23484552 79.23960546 -6.89257812 75.24023438 C-6.80878906 74.25410156 -6.725 73.26796875 -6.63867188 72.25195312 C-6.55746094 71.36121094 -6.47625 70.47046875 -6.39257812 69.55273438 C-6.32039062 68.74449219 -6.24820313 67.93625 -6.17382812 67.10351562 C-5.89257812 65.24023438 -5.89257812 65.24023438 -4.89257812 64.24023438 C-3.38839073 64.14711548 -1.87986456 64.1227741 -0.37280273 64.12670898 C1.06857811 64.12682228 1.06857811 64.12682228 2.53907776 64.12693787 C4.10624794 64.13467979 4.10624794 64.13467979 5.70507812 64.14257812 C6.76907333 64.14399307 7.83306854 64.14540802 8.92930603 64.14686584 C12.34287271 64.15248374 15.75637487 64.16503927 19.16992188 64.17773438 C21.47786364 64.18274707 23.78580643 64.18731038 26.09375 64.19140625 C31.76499614 64.20245898 37.4362044 64.21921451 43.10742188 64.24023438 C42.45607911 73.36225692 41.3886909 82.38748825 40.11547852 91.43994141 C39.79560263 93.73534936 39.49153734 96.03252604 39.1875 98.33007812 C37.25217175 112.42651884 34.69425582 125.11100305 23.29882812 134.63867188 C11.98986003 142.90369312 -2.07783408 143.73991082 -15.57446289 143.63134766 C-17.95517036 143.61523375 -20.33418682 143.63129248 -22.71484375 143.65039062 C-34.70699169 143.6679537 -45.83593819 143.04055431 -54.89257812 134.24023438 C-61.28877238 126.20399032 -60.44968667 117.09349169 -59.51660156 107.29003906 C-58.99459057 102.72371215 -58.38367688 98.16965435 -57.76757812 93.61523438 C-57.54277829 91.92093448 -57.31825625 90.22659771 -57.09399414 88.53222656 C-56.61864183 84.95912526 -56.13660697 81.3870018 -55.64990234 77.81542969 C-55.13609015 74.04492438 -54.63033598 70.27347211 -54.13134766 66.50097656 C-53.50192076 61.74625038 -52.85886568 56.99354982 -52.20587158 52.24200439 C-51.95797057 50.42673447 -51.71386769 48.61094127 -51.47381592 46.7946167 C-49.55042421 32.30717191 -47.63848536 18.38261025 -35.75585938 8.45507812 C-24.77311922 0.65407421 -13.08836488 0.03453394 0 0 Z " fill="#EFEDE3" transform="translate(734.892578125,467.759765625)"/>
<path d="M0 0 C0.8386409 -0.0033284 1.6772818 -0.0066568 2.54133606 -0.01008606 C4.31571913 -0.01514345 6.09011168 -0.01749475 7.86450195 -0.01733398 C10.55501384 -0.01950941 13.24510808 -0.03764697 15.93554688 -0.05664062 C17.66536319 -0.05957715 19.39518144 -0.06156021 21.125 -0.0625 C22.31611641 -0.07327827 22.31611641 -0.07327827 23.53129578 -0.08427429 C34.18547472 -0.04154989 44.56760478 2.5584569 52.39453125 10.16796875 C55.98897658 15.46365247 56.97025164 19.02063136 56.70703125 25.35546875 C56.69736328 26.03416016 56.68769531 26.71285156 56.67773438 27.41210938 C56.54398511 33.69832484 55.91790519 39.88748146 55.39453125 46.16796875 C44.50453125 46.16796875 33.61453125 46.16796875 22.39453125 46.16796875 C22.72453125 41.21796875 23.05453125 36.26796875 23.39453125 31.16796875 C20.03800667 27.09097717 20.03800667 27.09097717 17.09204102 26.66625977 C16.26502686 26.66811279 15.4380127 26.66996582 14.5859375 26.671875 C13.67392578 26.67123047 12.76191406 26.67058594 11.82226562 26.66992188 C10.40397461 26.69989258 10.40397461 26.69989258 8.95703125 26.73046875 C8.01537109 26.72337891 7.07371094 26.71628906 6.10351562 26.70898438 C-0.78004263 26.75450037 -0.78004263 26.75450037 -6.60546875 30.16796875 C-8.23955123 32.95968825 -8.96413132 35.41544547 -9.42749023 38.60327148 C-9.55780136 39.47616318 -9.68811249 40.34905487 -9.82237244 41.24839783 C-9.95575516 42.18994217 -10.08913788 43.13148651 -10.2265625 44.1015625 C-10.3719899 45.08931168 -10.5174173 46.07706085 -10.66725159 47.09474182 C-11.13227721 50.26408034 -11.58772877 53.43471142 -12.04296875 56.60546875 C-12.34508012 58.67391921 -12.64780857 60.74227965 -12.95117188 62.81054688 C-13.6995634 67.9244082 -14.43644898 73.03985579 -15.17050171 78.15579224 C-15.6028193 81.14962111 -16.04320244 84.14216643 -16.4855957 87.13452148 C-16.75995118 89.0076464 -17.03428488 90.88077451 -17.30859375 92.75390625 C-17.43531967 93.60041245 -17.56204559 94.44691864 -17.69261169 95.31907654 C-18.59168768 101.50366506 -19.50550053 107.9378786 -18.60546875 114.16796875 C-15.52466501 117.24877249 -12.35204144 116.46191383 -8.14257812 116.49023438 C-7.03720703 116.48701172 -5.93183594 116.48378906 -4.79296875 116.48046875 C-3.69919922 116.49658203 -2.60542969 116.51269531 -1.47851562 116.52929688 C-0.42083984 116.52994141 0.63683594 116.53058594 1.7265625 116.53125 C2.69311768 116.53423096 3.65967285 116.53721191 4.65551758 116.5402832 C7.8992768 116.09935863 9.77211088 115.10193173 12.39453125 113.16796875 C14.70759678 108.25921232 15.18992728 102.75116781 15.95703125 97.41796875 C16.20530917 95.71440027 16.45647182 94.01124895 16.7109375 92.30859375 C16.81865479 91.56125977 16.92637207 90.81392578 17.03735352 90.04394531 C17.39453125 88.16796875 17.39453125 88.16796875 18.39453125 86.16796875 C12.45453125 86.16796875 6.51453125 86.16796875 0.39453125 86.16796875 C0.70390625 83.28046875 1.01328125 80.39296875 1.33203125 77.41796875 C1.42734131 76.5146582 1.52265137 75.61134766 1.62084961 74.68066406 C1.69956299 73.95975586 1.77827637 73.23884766 1.859375 72.49609375 C1.93792725 71.76293945 2.01647949 71.02978516 2.09741211 70.27441406 C2.39453125 68.16796875 2.39453125 68.16796875 3.39453125 64.16796875 C19.23453125 64.16796875 35.07453125 64.16796875 51.39453125 64.16796875 C46.72929039 120.15085912 46.72929039 120.15085912 34.39453125 132.41796875 C27.41750913 138.29273864 17.45636651 142.21638076 8.25952148 142.3449707 C7.05192421 142.36422356 7.05192421 142.36422356 5.81993103 142.38386536 C4.95638504 142.39125229 4.09283905 142.39863922 3.203125 142.40625 C1.85239647 142.41835762 1.85239647 142.41835762 0.47438049 142.43070984 C-1.43283172 142.4445291 -3.34006843 142.45526089 -5.24731445 142.46313477 C-7.18195939 142.47461682 -9.1165736 142.49500829 -11.05102539 142.5246582 C-36.86344698 142.92000547 -36.86344698 142.92000547 -46.16796875 133.90625 C-51.71905197 127.19366296 -52.46662865 120.05277482 -51.84179688 111.54833984 C-50.98683544 102.93689975 -49.51486514 94.39211686 -48.16992188 85.84716797 C-47.24178524 79.7974192 -46.4276729 73.732847 -45.60546875 67.66796875 C-45.2698506 65.25255977 -44.93391308 62.83719515 -44.59765625 60.421875 C-43.92112999 55.53783017 -43.28679654 50.65045611 -42.67578125 45.7578125 C-42.3611316 43.37363789 -42.04604408 40.98952101 -41.73046875 38.60546875 C-41.60542969 37.53039062 -41.48039063 36.4553125 -41.3515625 35.34765625 C-39.87036426 24.49006545 -35.81219975 14.89045326 -27.1796875 7.85546875 C-18.63590738 2.25469028 -10.06014547 0.01392089 0 0 Z " fill="#F0EEE3" transform="translate(840.60546875,468.83203125)"/>
<path d="M0 0 C1.33946686 -0.0049926 1.33946686 -0.0049926 2.70599365 -0.01008606 C4.59907516 -0.01515523 6.49216562 -0.01749439 8.38525391 -0.01733398 C11.27131071 -0.01951196 14.15698005 -0.03764412 17.04296875 -0.05664062 C18.88281119 -0.05957631 20.72265545 -0.06155993 22.5625 -0.0625 C23.42208313 -0.06968552 24.28166626 -0.07687103 25.16729736 -0.08427429 C30.87500956 -0.06269965 35.55916606 0.45844497 40.39453125 3.78125 C42.76058216 7.19887909 42.5993059 10.34948367 42.484375 14.35546875 C42.47043701 15.19585693 42.45649902 16.03624512 42.44213867 16.90209961 C42.16739765 26.72565721 40.84603484 36.41367048 39.56054688 46.14550781 C38.95414057 50.82227621 38.4151619 55.50660079 37.875 60.19140625 C36.73681357 70.05467903 35.55695889 79.91227238 34.34179688 89.76635742 C34.06677283 92.00593652 33.79658437 94.24604785 33.52734375 96.48632812 C33.08228854 100.11370899 32.60368334 103.73452088 32.109375 107.35546875 C31.98828369 108.37439209 31.86719238 109.39331543 31.74243164 110.44311523 C30.93774608 115.9926213 29.61010232 119.60365942 25.87280273 123.8215332 C20.49189699 127.78940259 14.39013204 127.4617909 8.01171875 127.43359375 C7.05544083 127.4355072 6.0991629 127.43742065 5.11390686 127.43939209 C3.09929134 127.44074881 1.08466692 127.43708832 -0.92993164 127.42871094 C-4.00882623 127.41799242 -7.08713893 127.42862981 -10.16601562 127.44140625 C-12.12760545 127.4400848 -14.08919491 127.43752269 -16.05078125 127.43359375 C-16.96859879 127.43764221 -17.88641632 127.44169067 -18.83204651 127.44586182 C-27.52537242 127.382221 -27.52537242 127.382221 -30.953125 125.16796875 C-35.68874504 116.86017552 -32.74406982 104.47451702 -31.703125 95.41796875 C-31.56962646 94.22059082 -31.43612793 93.02321289 -31.29858398 91.78955078 C-30.86098013 87.91434498 -30.40964625 84.04098985 -29.953125 80.16796875 C-29.87580139 79.51026489 -29.79847778 78.85256104 -29.71881104 78.17492676 C-27.51245809 59.44975487 -25.0478196 40.7700022 -21.953125 22.16796875 C-21.70671265 20.65891968 -21.70671265 20.65891968 -21.45532227 19.11938477 C-21.28830811 18.14026123 -21.12129395 17.1611377 -20.94921875 16.15234375 C-20.80154053 15.27674805 -20.6538623 14.40115234 -20.50170898 13.49902344 C-19.16590735 7.82290685 -15.55939937 4.44084791 -10.953125 1.16796875 C-7.56798816 -0.52459967 -3.72383556 0.00477592 0 0 Z " fill="#0F1724" transform="translate(206.953125,449.83203125)"/>
<path d="M0 0 C0.85000076 -0.00807175 1.70000153 -0.01614349 2.57575989 -0.02445984 C4.38064524 -0.03832059 6.18555702 -0.0490338 7.99047852 -0.05688477 C10.74091074 -0.07404023 13.49012312 -0.11790013 16.24023438 -0.16210938 C17.99348074 -0.17224108 19.74673734 -0.18075569 21.5 -0.1875 C22.31897263 -0.20500809 23.13794525 -0.22251617 23.98173523 -0.24055481 C29.32907182 -0.2204243 32.3219851 0.71432021 36.58203125 4.23828125 C39.34922177 7.75945345 38.67233591 11.6849507 38.33203125 15.92578125 C38.27756836 16.66820068 38.22310547 17.41062012 38.16699219 18.17553711 C38.04658751 19.7389886 37.91916352 21.30191346 37.78515625 22.86425781 C37.65114025 24.43056981 37.52594584 25.99766493 37.41015625 27.56542969 C36.07899122 45.30169098 36.07899122 45.30169098 30.58203125 50.23828125 C25.31530153 53.54552454 21.03889581 53.63875272 15.02734375 53.53125 C14.12579559 53.52700516 13.22424744 53.52276031 12.29537964 53.51838684 C9.4322856 53.50167183 6.56991046 53.46403317 3.70703125 53.42578125 C1.75912479 53.41072512 -0.18879277 53.39703834 -2.13671875 53.38476562 C-6.89740997 53.35179183 -11.65756771 53.30005938 -16.41796875 53.23828125 C-15.6990118 43.40758732 -14.26857798 33.69268686 -12.83398438 23.94628906 C-12.41396731 21.08603197 -12.00168868 18.22472516 -11.58984375 15.36328125 C-11.3246818 13.54810938 -11.05907348 11.73300265 -10.79296875 9.91796875 C-10.60855225 8.63223465 -10.60855225 8.63223465 -10.42041016 7.32052612 C-9.22471719 -0.71690139 -7.57735419 0.06751155 0 0 Z " fill="#0F1723" transform="translate(534.41796875,450.76171875)"/>
<path d="M0 0 C0.73798828 -0.02384766 1.47597656 -0.04769531 2.23632812 -0.07226562 C6.30194355 -0.06142398 8.83138569 0.37311815 12.03515625 2.97265625 C15.73766982 6.7667312 15.72048173 8.66207405 15.75 13.875 C15.76417969 15.00550781 15.77835938 16.13601563 15.79296875 17.30078125 C15.43597866 22.35309866 14.4396218 24.63447381 10.9375 28.33984375 C7.40050575 31.0773657 3.9171353 31.27642999 -0.4375 31.125 C-1.12328125 31.13595703 -1.8090625 31.14691406 -2.515625 31.15820312 C-7.59089928 31.08556084 -10.58617896 29.81205213 -14.4375 26.5625 C-17.74058692 21.97435045 -16.89924202 15.94468045 -16.4375 10.5625 C-13.56818267 2.10556471 -8.31774886 -0.1228512 0 0 Z " fill="#EEECE3" transform="translate(640.4375,581.4375)"/>
<path d="M0 0 C15.84 0 31.68 0 48 0 C47.67 3.96 47.34 7.92 47 12 C44.69 11.34 42.38 10.68 40 10 C40 7.33333333 40 4.66666667 40 2 C20.2 1.505 20.2 1.505 0 1 C0 0.67 0 0.34 0 0 Z " fill="#DDDDD9" transform="translate(730,532)"/>
<path d="M0 0 C-0.66 6.93 -1.32 13.86 -2 21 C-2.33 21 -2.66 21 -3 21 C-3 19.02 -3 17.04 -3 15 C-4.32 15 -5.64 15 -7 15 C-7 14.34 -7 13.68 -7 13 C-7.66 13 -8.32 13 -9 13 C-9 12.34 -9 11.68 -9 11 C-8.01 10.319375 -8.01 10.319375 -7 9.625 C-6.34 9.08875 -5.68 8.5525 -5 8 C-5 6.68 -5 5.36 -5 4 C-5.33 3.67 -5.66 3.34 -6 3 C-3.375 0 -3.375 0 0 0 Z " fill="#E6E5DD" transform="translate(185,473)"/>
<path d="M0 0 C0.88365234 0.00902344 1.76730469 0.01804687 2.67773438 0.02734375 C4.84777359 0.05080363 7.01767247 0.08667135 9.1875 0.125 C9.5175 0.785 9.8475 1.445 10.1875 2.125 C4.46709989 2.9570582 -1.03490116 3.24536664 -6.8125 3.125 C-7.245625 4.3315625 -7.245625 4.3315625 -7.6875 5.5625 C-8.8125 8.125 -8.8125 8.125 -10.8125 9.125 C-11.10125 8.34125 -11.39 7.5575 -11.6875 6.75 C-12.66162254 4.02828368 -12.66162254 4.02828368 -14.8125 2.125 C-9.96827153 -0.42248246 -5.32089624 -0.10316428 0 0 Z " fill="#181D27" transform="translate(735.8125,493.875)"/>
<path d="M0 0 C15.84 0 31.68 0 48 0 C47.67 2.97 47.34 5.94 47 9 C46.67 9 46.34 9 46 9 C46 6.69 46 4.38 46 2 C31.15 2 16.3 2 1 2 C1 3.98 1 5.96 1 8 C0.67 8 0.34 8 0 8 C0 5.36 0 2.72 0 0 Z " fill="#FAFAFA" transform="translate(844,533)"/>
<path d="M0 0 C1.94158017 3.51624755 2.18311068 5.9715651 2 10 C2.66 10 3.32 10 4 10 C3.67 11.98 3.34 13.96 3 16 C3.66 16.33 4.32 16.66 5 17 C4.01 17.33 3.02 17.66 2 18 C1.34 17.67 0.68 17.34 0 17 C-0.33 21.29 -0.66 25.58 -1 30 C-1.66 29.67 -2.32 29.34 -3 29 C-2.47947582 19.21962456 -1.53611741 9.67903105 0 0 Z " fill="#DFDFDB" transform="translate(467,497)"/>
<path d="M0 0 C0.33 0.66 0.66 1.32 1 2 C1.70084717 1.99476318 2.40169434 1.98952637 3.1237793 1.98413086 C6.31167701 1.96329148 9.49956036 1.95031768 12.6875 1.9375 C13.79029297 1.92912109 14.89308594 1.92074219 16.02929688 1.91210938 C17.6293457 1.90727539 17.6293457 1.90727539 19.26171875 1.90234375 C20.24100342 1.89710693 21.22028809 1.89187012 22.22924805 1.88647461 C24.92469572 1.99691457 27.37545639 2.39465834 30 3 C30 3.33 30 3.66 30 4 C18.45 4 6.9 4 -5 4 C-5.33 3.34 -5.66 2.68 -6 2 C-4.02 2 -2.04 2 0 2 C0 1.34 0 0.68 0 0 Z " fill="#F8F7F3" transform="translate(535,447)"/>
<path d="M0 0 C0.66 0.66 1.32 1.32 2 2 C1.9675293 4.11962891 1.9675293 4.11962891 1.57421875 6.7265625 C1.43693359 7.67660156 1.29964844 8.62664062 1.15820312 9.60546875 C1.00287109 10.60191406 0.84753906 11.59835937 0.6875 12.625 C0.39944928 14.57547798 0.11168415 16.52599817 -0.17578125 18.4765625 C-0.31709473 19.41145508 -0.4584082 20.34634766 -0.60400391 21.30957031 C-1.12761045 24.86699577 -1.57176312 28.42994602 -2 32 C-4.61781461 28.15382622 -4.0903925 24.30010252 -3.75 19.875 C-3.6984375 19.11960937 -3.646875 18.36421875 -3.59375 17.5859375 C-2.45364583 2.45364583 -2.45364583 2.45364583 0 0 Z " fill="#191E28" transform="translate(137,444)"/>
<path d="M0 0 C0.66 0 1.32 0 2 0 C1.34938113 8.38955907 0.25101251 16.68015955 -1 25 C-1.66 24.67 -2.32 24.34 -3 24 C-2.91621094 23.11957031 -2.83242188 22.23914063 -2.74609375 21.33203125 C-2.64425781 20.17058594 -2.54242187 19.00914062 -2.4375 17.8125 C-2.33308594 16.66394531 -2.22867188 15.51539063 -2.12109375 14.33203125 C-1.87060574 11.08176368 -1.87060574 11.08176368 -2.5625 8.28125 C-3.21575758 4.87497831 -1.6890956 2.90524443 0 0 Z " fill="#E8E9E7" transform="translate(521,468)"/>
<path d="M0 0 C2.31 0.33 4.62 0.66 7 1 C6.01 1.495 6.01 1.495 5 2 C3.90833725 3.93330603 3.90833725 3.93330603 3 6 C2.67 6.66 2.34 7.32 2 8 C1.76970044 10.37123246 1.58880058 12.74741943 1.4375 15.125 C1.35371094 16.40632812 1.26992188 17.68765625 1.18359375 19.0078125 C1.09271484 20.48894531 1.09271484 20.48894531 1 22 C0.34 21.67 -0.32 21.34 -1 21 C-1.18451025 6.21867882 -1.18451025 6.21867882 0 0 Z " fill="#DDDDD9" transform="translate(790,571)"/>
<path d="M0 0 C0.99 0 1.98 0 3 0 C2.34 5.94 1.68 11.88 1 18 C0.01 18 -0.98 18 -2 18 C-2.5625 16.0625 -2.5625 16.0625 -3 14 C-2.67 13.67 -2.34 13.34 -2 13 C-1.60333773 10.81980521 -1.25684763 8.6303537 -0.9375 6.4375 C-0.76089844 5.23996094 -0.58429688 4.04242188 -0.40234375 2.80859375 C-0.26957031 1.88175781 -0.13679688 0.95492188 0 0 Z " fill="#E8E8E1" transform="translate(376,489)"/>
<path d="M0 0 C5.28 0.33 10.56 0.66 16 1 C15.34 2.65 14.68 4.3 14 6 C10.875 6.8125 10.875 6.8125 8 7 C8 6.34 8 5.68 8 5 C7.4225 4.731875 6.845 4.46375 6.25 4.1875 C4 3 4 3 0 0 Z " fill="#E5E4DB" transform="translate(832,469)"/>
<path d="M0 0 C1.67542976 0.28604898 3.34385343 0.61781233 5 1 C5.33 2.32 5.66 3.64 6 5 C5.01 5.495 5.01 5.495 4 6 C4.33 6.99 4.66 7.98 5 9 C3.02 9 1.04 9 -1 9 C-1.09765625 2.84765625 -1.09765625 2.84765625 -1 1 C-0.67 0.67 -0.34 0.34 0 0 Z " fill="#E6E6DD" transform="translate(310,605)"/>
<path d="M0 0 C0.33 0 0.66 0 1 0 C1.09733092 7.09434233 1.10087193 13.98194143 0 21 C-0.99 20.34 -1.98 19.68 -3 19 C-3.85388889 12.4535185 -1.7308459 6.2743164 0 0 Z " fill="#E0E1DE" transform="translate(782,489)"/>
<path d="M0 0 C0.33 0.66 0.66 1.32 1 2 C0.01 2 -0.98 2 -2 2 C-2.33 2.66 -2.66 3.32 -3 4 C-3.721875 3.979375 -4.44375 3.95875 -5.1875 3.9375 C-7.9985768 3.89125612 -7.9985768 3.89125612 -10.625 4.6875 C-11.40875 4.790625 -12.1925 4.89375 -13 5 C-14.6484375 3.51953125 -14.6484375 3.51953125 -16 2 C-14.27192682 1.66104344 -12.54248026 1.32908475 -10.8125 1 C-9.84957031 0.814375 -8.88664063 0.62875 -7.89453125 0.4375 C-5.2065794 0.03122388 -2.71228981 -0.07933572 0 0 Z " fill="#E6E5E0" transform="translate(183,411)"/>
<path d="M0 0 C0.66 0 1.32 0 2 0 C3.0006709 5.96345767 3.0662997 10.28728907 1 16 C0.34 15.67 -0.32 15.34 -1 15 C-0.67 10.05 -0.34 5.1 0 0 Z " fill="#DEDFDB" transform="translate(470,472)"/>
<path d="M0 0 C0 1.98 0 3.96 0 6 C0.66 6 1.32 6 2 6 C2 8 2 8 0.125 10.125 C-2 12 -2 12 -4 12 C-3.88648483 10.18674449 -3.75887039 8.37436643 -3.625 6.5625 C-3.55539062 5.55316406 -3.48578125 4.54382813 -3.4140625 3.50390625 C-3.27742188 2.67761719 -3.14078125 1.85132813 -3 1 C-1 0 -1 0 0 0 Z " fill="#191F28" transform="translate(514,547)"/>
<path d="M0 0 C0.33 0 0.66 0 1 0 C1.05379226 2.95857409 1.09357093 5.91617721 1.125 8.875 C1.15013672 10.13763672 1.15013672 10.13763672 1.17578125 11.42578125 C1.18222656 12.23144531 1.18867187 13.03710938 1.1953125 13.8671875 C1.21102295 14.98262939 1.21102295 14.98262939 1.22705078 16.12060547 C1 18 1 18 -1 20 C-2 19 -2 19 -2.1875 15.0625 C-2.14590022 9.88748756 -1.17470861 5.02397699 0 0 Z " fill="#0B0F18" transform="translate(714,528)"/>
<path d="M0 0 C0.99 1.32 1.98 2.64 3 4 C3.99 4.66 4.98 5.32 6 6 C6 7.33333333 6 8.66666667 6 10 C4.35 11.32 2.7 12.64 1 14 C0.67 9.38 0.34 4.76 0 0 Z " fill="#E6E5DA" transform="translate(132,490)"/>
<path d="M0 0 C2.91180862 4.36771293 3.12438648 7.55153591 3.0625 12.75 C3.05347656 13.73484375 3.04445313 14.7196875 3.03515625 15.734375 C3.02355469 16.48203125 3.01195312 17.2296875 3 18 C2.69320312 17.37609375 2.38640625 16.7521875 2.0703125 16.109375 C1.05628845 14.02240975 1.05628845 14.02240975 -0.125 12.25 C-1.47891423 8.76850627 -1.18026894 5.72555818 -1 2 C-0.67 1.34 -0.34 0.68 0 0 Z " fill="#E4E4E1" transform="translate(621,429)"/>
<path d="M0 0 C-0.99 0.495 -0.99 0.495 -2 1 C-2.33 1.99 -2.66 2.98 -3 4 C-4.32 4 -5.64 4 -7 4 C-7.66 5.32 -8.32 6.64 -9 8 C-10 7 -10 7 -10.0625 3.9375 C-10.041875 2.968125 -10.02125 1.99875 -10 1 C-6.78548731 -0.60725635 -3.56387464 -0.05748185 0 0 Z " fill="#E7E5DC" transform="translate(344,412)"/>
<path d="M0 0 C1.5 1.375 1.5 1.375 3 3 C3 3.66 3 4.32 3 5 C-0.78187881 6.83691257 -2.94568308 7.15837626 -7 6 C-6.67 4.68 -6.34 3.36 -6 2 C-6 2.66 -6 3.32 -6 4 C-3.53199953 2.84826645 -1.95216435 1.95216435 0 0 Z " fill="#EAE8DF" transform="translate(264,603)"/>
<path d="M0 0 C0.66 0.33 1.32 0.66 2 1 C1.47599609 1.70576172 1.47599609 1.70576172 0.94140625 2.42578125 C0.48636719 3.04839844 0.03132812 3.67101562 -0.4375 4.3125 C-0.88996094 4.92738281 -1.34242188 5.54226563 -1.80859375 6.17578125 C-4.19603538 9.83130663 -4.26760004 13.43251487 -4.5625 17.6875 C-4.64628906 18.86699219 -4.73007812 20.04648437 -4.81640625 21.26171875 C-4.87699219 22.16535156 -4.93757812 23.06898438 -5 24 C-5.33 24 -5.66 24 -6 24 C-6.08165496 21.79229195 -6.13948488 19.58369575 -6.1875 17.375 C-6.23970703 15.53035156 -6.23970703 15.53035156 -6.29296875 13.6484375 C-5.97692298 9.71261414 -4.87148028 7.42859116 -3 4 C-3 3.01 -3 2.02 -3 1 C-2.01 0.67 -1.02 0.34 0 0 Z " fill="#080B12" transform="translate(629,581)"/>
<path d="M0 0 C0.99 0.33 1.98 0.66 3 1 C4.125 5.75 4.125 5.75 3 8 C3.99 8.33 4.98 8.66 6 9 C5.01 9.33 4.02 9.66 3 10 C3 10.66 3 11.32 3 12 C2.34 12 1.68 12 1 12 C0.67 8.04 0.34 4.08 0 0 Z " fill="#E3E2D9" transform="translate(136,458)"/>
<path d="M0 0 C3.38325552 2.25550368 3.78739152 3.30929259 5.1875 7 C5.53167969 7.886875 5.87585938 8.77375 6.23046875 9.6875 C7 12 7 12 7 14 C6.01 13.67 5.02 13.34 4 13 C4 12.34 4 11.68 4 11 C3.34 11 2.68 11 2 11 C1.34 7.37 0.68 3.74 0 0 Z " fill="#E4E4E1" transform="translate(598,599)"/>
<path d="M0 0 C1.32 1.32 2.64 2.64 4 4 C2.68 6.64 1.36 9.28 0 12 C-0.33 12 -0.66 12 -1 12 C-1.02712066 10.56260487 -1.04645067 9.12506137 -1.0625 7.6875 C-1.07410156 6.88699219 -1.08570313 6.08648438 -1.09765625 5.26171875 C-1 3 -1 3 0 0 Z " fill="#F5F4ED" transform="translate(457,581)"/>
<path d="M0 0 C3.63 0.33 7.26 0.66 11 1 C11 1.33 11 1.66 11 2 C9.329375 2.12375 9.329375 2.12375 7.625 2.25 C3.94246056 2.57873787 3.94246056 2.57873787 2.5625 5.0625 C2.376875 5.701875 2.19125 6.34125 2 7 C1.34 6.34 0.68 5.68 0 5 C-0.99 5.495 -0.99 5.495 -2 6 C-1.34 4.02 -0.68 2.04 0 0 Z " fill="#E3E2DB" transform="translate(572,538)"/>
<path d="M0 0 C0.33 0 0.66 0 1 0 C1 2.31 1 4.62 1 7 C0.01 7.33 -0.98 7.66 -2 8 C-2.99 7.34 -3.98 6.68 -5 6 C-5 5.01 -5 4.02 -5 3 C-6.65 3 -8.3 3 -10 3 C-10 2.67 -10 2.34 -10 2 C-6.7 2 -3.4 2 0 2 C0 1.34 0 0.68 0 0 Z " fill="#E8E6DD" transform="translate(389,410)"/>
<path d="M0 0 C1.5 1.375 1.5 1.375 3 3 C3 3.66 3 4.32 3 5 C3.99 5.33 4.98 5.66 6 6 C5.01 6 4.02 6 3 6 C3 6.66 3 7.32 3 8 C3.66 8 4.32 8 5 8 C5 8.66 5 9.32 5 10 C5.66 10.33 6.32 10.66 7 11 C5.02 11.33 3.04 11.66 1 12 C0.01751476 7.9472484 -0.08159574 4.16138263 0 0 Z " fill="#DEDDD2" transform="translate(123,556)"/>
<path d="M0 0 C0.99 0 1.98 0 3 0 C3 1.98 3 3.96 3 6 C2.01 5.67 1.02 5.34 0 5 C-0.33 5.99 -0.66 6.98 -1 8 C-2.65 8.33 -4.3 8.66 -6 9 C-6 8.01 -6 7.02 -6 6 C-5.34 6 -4.68 6 -4 6 C-3.71125 5.38125 -3.4225 4.7625 -3.125 4.125 C-2 2 -2 2 0 0 Z " fill="#E7E5DC" transform="translate(887,548)"/>
<path d="M0 0 C1.46726798 3.81489674 0.43336419 6.29011622 -1 10 C-2.98 10 -4.96 10 -7 10 C-7 9.01 -7 8.02 -7 7 C-5.33720673 5.9935725 -3.67016516 4.99414593 -2 4 C-0.67206394 1.93299345 -0.67206394 1.93299345 0 0 Z " fill="#E6E6E2" transform="translate(568,495)"/>
<path d="M0 0 C5.61 0 11.22 0 17 0 C17 0.33 17 0.66 17 1 C15.02 1 13.04 1 11 1 C10.67 1.99 10.34 2.98 10 4 C9.01 3.67 8.02 3.34 7 3 C7 2.34 7 1.68 7 1 C6.34 1.66 5.68 2.32 5 3 C4.01 3 3.02 3 2 3 C2 2.34 2 1.68 2 1 C1.34 0.67 0.68 0.34 0 0 Z " fill="#EBE9DA" transform="translate(547,412)"/>
<path d="M0 0 C4.95 0 9.9 0 15 0 C15 0.33 15 0.66 15 1 C13.6078125 1.1546875 13.6078125 1.1546875 12.1875 1.3125 C8.96745642 2.0070192 7.97420135 2.47740939 6 5 C5.67 4.34 5.34 3.68 5 3 C3.35636866 2.27840576 1.68949614 1.60648579 0 1 C0 0.67 0 0.34 0 0 Z M2 4 C2.99 4.33 3.98 4.66 5 5 C4.01 5 3.02 5 2 5 C2 4.67 2 4.34 2 4 Z " fill="#F8F6EF" transform="translate(717,587)"/>
<path d="M0 0 C0.66 0 1.32 0 2 0 C2 0.99 2 1.98 2 3 C2.66 3.66 3.32 4.32 4 5 C3.54625 5.5775 3.0925 6.155 2.625 6.75 C1.15548547 8.78471242 0.08765585 10.74902529 -1 13 C-1.22151549 11.20991533 -1.42682213 9.41781838 -1.625 7.625 C-1.74101563 6.62726562 -1.85703125 5.62953125 -1.9765625 4.6015625 C-1.98429688 3.74304688 -1.99203125 2.88453125 -2 2 C-1.34 1.34 -0.68 0.68 0 0 Z " fill="#DFDED6" transform="translate(745,557)"/>
<path d="M0 0 C-3.78756477 3.61139896 -3.78756477 3.61139896 -6 5 C-8.875 4.8125 -8.875 4.8125 -11 4 C-4.45754717 -1.33726415 -4.45754717 -1.33726415 0 0 Z " fill="#E6E6E3" transform="translate(710,473)"/>
<path d="M0 0 C0.33 0 0.66 0 1 0 C1.84681133 5.08086796 2.09038099 9.84828377 2 15 C-1.44216672 12.3401439 -1.99504674 9.09711714 -3 5 C-2.34 4.67 -1.68 4.34 -1 4 C-0.34786708 1.97536745 -0.34786708 1.97536745 0 0 Z " fill="#DDDCD4" transform="translate(299,456)"/>
<path d="M0 0 C1.125 1.625 1.125 1.625 2 4 C1.125 7.25 1.125 7.25 0 10 C0.66 10 1.32 10 2 10 C1.67 11.32 1.34 12.64 1 14 C1 13.34 1 12.68 1 12 C0.34 12 -0.32 12 -1 12 C-1.33 8.37 -1.66 4.74 -2 1 C-1.34 0.67 -0.68 0.34 0 0 Z " fill="#E8E7DD" transform="translate(333,436)"/>
<path d="M0 0 C0 0.99 0 1.98 0 3 C0.66 3.33 1.32 3.66 2 4 C1.34 4 0.68 4 0 4 C-0.33 4.66 -0.66 5.32 -1 6 C-2.65 5.67 -4.3 5.34 -6 5 C-6 4.01 -6 3.02 -6 2 C-2.25 0 -2.25 0 0 0 Z " fill="#E5E3DC" transform="translate(166,414)"/>
<path d="M0 0 C1.65 0.33 3.3 0.66 5 1 C4.3125 3.4375 4.3125 3.4375 3 6 C0.375 6.8125 0.375 6.8125 -2 7 C-1.34 4.69 -0.68 2.38 0 0 Z " fill="#EAE7DD" transform="translate(537,551)"/>
<path d="M0 0 C1.98 0.99 1.98 0.99 4 2 C4 4.64 4 7.28 4 10 C3.01 10 2.02 10 1 10 C-0.60725635 6.78548731 -0.05748185 3.56387464 0 0 Z " fill="#D6D6D0" transform="translate(729,533)"/>
<path d="M0 0 C0.99 0 1.98 0 3 0 C3.66 2.64 4.32 5.28 5 8 C3.02 8.99 3.02 8.99 1 10 C0.67 6.7 0.34 3.4 0 0 Z " fill="#E6E5DD" transform="translate(796,529)"/>
<path d="M0 0 C1.98 0 3.96 0 6 0 C6.33 1.32 6.66 2.64 7 4 C6.01 4.495 6.01 4.495 5 5 C5 4.34 5 3.68 5 3 C4.34 3 3.68 3 3 3 C2.67 3.99 2.34 4.98 2 6 C1.34 6 0.68 6 0 6 C0 4.02 0 2.04 0 0 Z " fill="#E4E3D9" transform="translate(129,512)"/>
<path d="M0 0 C0.99 1.485 0.99 1.485 2 3 C4.05925139 3.72382467 4.05925139 3.72382467 6 4 C4.625 6.5 4.625 6.5 3 9 C2.34 9 1.68 9 1 9 C-0.4783226 6.04335481 -0.06032783 3.25770263 0 0 Z " fill="#E1E0D8" transform="translate(329,451)"/>
<path d="M0 0 C6.27 0 12.54 0 19 0 C19 0.33 19 0.66 19 1 C15.04 1 11.08 1 7 1 C7 1.66 7 2.32 7 3 C4.03824877 2.38722388 2.61941217 1.74627478 0 0 Z " fill="#D1D3D1" transform="translate(824,586)"/>
<path d="M0 0 C0.99 0.99 1.98 1.98 3 3 C2.67 3.99 2.34 4.98 2 6 C3.32 6.66 4.64 7.32 6 8 C4.02 8.33 2.04 8.66 0 9 C-1.125 7.3125 -1.125 7.3125 -2 5 C-1.125 2.25 -1.125 2.25 0 0 Z " fill="#141B28" transform="translate(823,576)"/>
<path d="M0 0 C2.60334924 2.71182212 2.99456691 3.89133813 3.1875 7.75 C3.125625 8.8225 3.06375 9.895 3 11 C2.01 11 1.02 11 0 11 C-0.19406478 9.35492782 -0.38007935 7.70890406 -0.5625 6.0625 C-0.66691406 5.14597656 -0.77132812 4.22945312 -0.87890625 3.28515625 C-0.91886719 2.53105469 -0.95882812 1.77695312 -1 1 C-0.67 0.67 -0.34 0.34 0 0 Z " fill="#E6E5DE" transform="translate(541,564)"/>
<path d="M0 0 C3.96 0.33 7.92 0.66 12 1 C12 1.33 12 1.66 12 2 C10.35 2.33 8.7 2.66 7 3 C7 3.66 7 4.32 7 5 C6.34 5 5.68 5 5 5 C5 4.34 5 3.68 5 3 C3.35 2.67 1.7 2.34 0 2 C0 1.34 0 0.68 0 0 Z " fill="#E5E6E1" transform="translate(866,469)"/>
<path d="M0 0 C0.99 0 1.98 0 3 0 C2.67 4.29 2.34 8.58 2 13 C1.67 13 1.34 13 1 13 C0.40667939 8.62426048 -0.13827236 4.42471556 0 0 Z " fill="#252933" transform="translate(790,554)"/>
<path d="M0 0 C0.33 0 0.66 0 1 0 C1.33 3.96 1.66 7.92 2 12 C1.01 12 0.02 12 -1 12 C-2.37520651 8.17998192 -1.74051523 4.92473073 -1 1 C-0.67 0.67 -0.34 0.34 0 0 Z " fill="#E4E3DA" transform="translate(177,512)"/>
<path d="M0 0 C0.66 0 1.32 0 2 0 C2 1.98 2 3.96 2 6 C1.01 6.495 1.01 6.495 0 7 C-1.13350534 9.01669827 -1.13350534 9.01669827 -2 11 C-3.14947895 7.44706507 -3.0868937 6.20023331 -1.5625 2.6875 C-1.046875 1.800625 -0.53125 0.91375 0 0 Z " fill="#E1E1D8" transform="translate(521,468)"/>
<path d="M0 0 C0.33 0 0.66 0 1 0 C1.05429959 1.74965358 1.09292823 3.49979787 1.125 5.25 C1.14820313 6.22453125 1.17140625 7.1990625 1.1953125 8.203125 C0.99862781 11.0196498 0.44568916 12.60949036 -1 15 C-2.18609365 9.3067505 -1.66251802 5.57432514 0 0 Z " fill="#0C0F19" transform="translate(241,522)"/>
<path d="M0 0 C1.98 0.66 3.96 1.32 6 2 C6 2.66 6 3.32 6 4 C5.34 4 4.68 4 4 4 C3.67 4.99 3.34 5.98 3 7 C2.01 7 1.02 7 0 7 C0 4.69 0 2.38 0 0 Z " fill="#DDDDD4" transform="translate(126,534)"/>
<path d="M0 0 C0.66 0 1.32 0 2 0 C2.05447047 1.41623216 2.09300508 2.83308191 2.125 4.25 C2.14820313 5.03890625 2.17140625 5.8278125 2.1953125 6.640625 C1.9828378 9.20731941 1.28654105 10.7916067 0 13 C-0.19551338 11.39679026 -0.38111983 9.79237014 -0.5625 8.1875 C-0.71912109 6.84751953 -0.71912109 6.84751953 -0.87890625 5.48046875 C-1 3 -1 3 0 0 Z " fill="#F2F2EF" transform="translate(379,469)"/>
<path d="M0 0 C0.99 0 1.98 0 3 0 C4 3 4 3 3.0625 5.1875 C2.5365625 6.0846875 2.5365625 6.0846875 2 7 C0 6 0 6 -1 4 C-3.01669827 2.86649466 -3.01669827 2.86649466 -5 2 C-3.35 1.67 -1.7 1.34 0 1 C0 0.67 0 0.34 0 0 Z " fill="#151D29" transform="translate(243,615)"/>
<path d="M0 0 C0 0.66 0 1.32 0 2 C-0.66 2 -1.32 2 -2 2 C-2.33 2.99 -2.66 3.98 -3 5 C-7.455 5.495 -7.455 5.495 -12 6 C-3 0 -3 0 0 0 Z " fill="#1B1E24" transform="translate(759,602)"/>
<path d="M0 0 C0.33 0 0.66 0 1 0 C0.67 3.63 0.34 7.26 0 11 C-0.99 10.67 -1.98 10.34 -3 10 C-3.23226952 6.59338044 -3.35720302 4.59016151 -1.5625 1.625 C-0.7890625 0.820625 -0.7890625 0.820625 0 0 Z " fill="#D5D6D1" transform="translate(297,487)"/>
<path d="M0 0 C1.41377341 2.63904371 2.37240135 5.07120629 3 8 C1.35 7.67 -0.3 7.34 -2 7 C-1.34 4.69 -0.68 2.38 0 0 Z " fill="#E6E6DE" transform="translate(690,601)"/>
<path d="M0 0 C1.98 0 3.96 0 6 0 C5.67 2.97 5.34 5.94 5 9 C4.67 9 4.34 9 4 9 C4 6.69 4 4.38 4 2 C2.68 1.67 1.36 1.34 0 1 C0 0.67 0 0.34 0 0 Z " fill="#F4F4F2" transform="translate(886,533)"/>
<path d="M0 0 C0.99 0 1.98 0 3 0 C3.1875 2.875 3.1875 2.875 3 6 C2.01 6.66 1.02 7.32 0 8 C-0.66 6.02 -1.32 4.04 -2 2 C-1.34 2 -0.68 2 0 2 C0 1.34 0 0.68 0 0 Z " fill="#E6E5DD" transform="translate(372,516)"/>
<path d="M0 0 C3.3 0 6.6 0 10 0 C8 3 8 3 5.5625 3.875 C3 4 3 4 1.1875 2.625 C0 1 0 1 0 0 Z " fill="#E2E2DE" transform="translate(715,469)"/>
<path d="M0 0 C0.33 0 0.66 0 1 0 C1 1.98 1 3.96 1 6 C1.66 6 2.32 6 3 6 C3 8.31 3 10.62 3 13 C2.01 13.495 2.01 13.495 1 14 C0.04738513 9.23692563 -0.08333357 4.8333472 0 0 Z " fill="#252C38" transform="translate(301,459)"/>
<path d="M0 0 C0.33 0.66 0.66 1.32 1 2 C1.66 2 2.32 2 3 2 C3.33 3.32 3.66 4.64 4 6 C2.35 6.33 0.7 6.66 -1 7 C-0.67 4.69 -0.34 2.38 0 0 Z " fill="#20262F" transform="translate(285,575)"/>
<path d="M0 0 C0.99 0.33 1.98 0.66 3 1 C1.68 1.99 0.36 2.98 -1 4 C-0.67 2.68 -0.34 1.36 0 0 Z M-2 4 C-1.67 4 -1.34 4 -1 4 C-1 5.65 -1 7.3 -1 9 C-1.99 9 -2.98 9 -4 9 C-3.34 7.35 -2.68 5.7 -2 4 Z " fill="#E8E7DD" transform="translate(601,523)"/>
<path d="M0 0 C2.01822917 0.06510417 4.03645833 0.13020833 6.0546875 0.1953125 C4.0546875 2.1953125 4.0546875 2.1953125 1.4296875 2.3203125 C0.6459375 2.2790625 -0.1378125 2.2378125 -0.9453125 2.1953125 C-1.6053125 3.5153125 -2.2653125 4.8353125 -2.9453125 6.1953125 C-3.5703125 4.3203125 -3.5703125 4.3203125 -3.9453125 2.1953125 C-1.9453125 0.1953125 -1.9453125 0.1953125 0 0 Z " fill="#1B202B" transform="translate(836.9453125,496.8046875)"/>
<path d="M0 0 C0.33 0.66 0.66 1.32 1 2 C0.67 2.66 0.34 3.32 0 4 C-0.66 4 -1.32 4 -2 4 C-2.33 4.99 -2.66 5.98 -3 7 C-3.99 7 -4.98 7 -6 7 C-4.52307692 2.32307692 -4.52307692 2.32307692 -1.875 0.6875 C-1.25625 0.460625 -0.6375 0.23375 0 0 Z " fill="#E5E6E2" transform="translate(811,481)"/>
<path d="M0 0 C0.99 0 1.98 0 3 0 C3.6875 2.8125 3.6875 2.8125 4 6 C3.01 6.99 2.02 7.98 1 9 C0.67 6.03 0.34 3.06 0 0 Z " fill="#202731" transform="translate(386,436)"/>
<path d="M0 0 C0.103125 0.639375 0.20625 1.27875 0.3125 1.9375 C0.539375 2.618125 0.76625 3.29875 1 4 C1.99 4.33 2.98 4.66 4 5 C2.75 6.5625 2.75 6.5625 1 8 C-1.1875 7.6875 -1.1875 7.6875 -3 7 C-2.01 4.69 -1.02 2.38 0 0 Z " fill="#D3D4D1" transform="translate(855,576)"/>
<path d="M0 0 C2.18975773 3.28463659 2.99806563 6.20696275 4 10 C3.34 10 2.68 10 2 10 C1.67 9.01 1.34 8.02 1 7 C0.34 6.67 -0.32 6.34 -1 6 C-0.67 4.02 -0.34 2.04 0 0 Z " fill="#191D23" transform="translate(537,563)"/>
<path d="M0 0 C2.10814567 4.21629134 2.17700355 6.39790775 2 11 C1.01 11 0.02 11 -1 11 C-0.67 7.37 -0.34 3.74 0 0 Z " fill="#E4E4E0" transform="translate(238,556)"/>
<path d="M0 0 C0.99 1.485 0.99 1.485 2 3 C2.66 3.33 3.32 3.66 4 4 C4 5.98 4 7.96 4 10 C3.34 10 2.68 10 2 10 C2 9.01 2 8.02 2 7 C1.34 7 0.68 7 0 7 C0 4.69 0 2.38 0 0 Z " fill="#CECEC7" transform="translate(319,527)"/>
<path d="M0 0 C1.27351308 2.54702616 0.80191925 3.4282945 0.0625 6.125 C-0.13214844 6.84945313 -0.32679688 7.57390625 -0.52734375 8.3203125 C-0.68332031 8.87460937 -0.83929687 9.42890625 -1 10 C-1.66 10 -2.32 10 -3 10 C-2.25 3.375 -2.25 3.375 0 0 Z " fill="#26292D" transform="translate(720,497)"/>
<path d="M0 0 C0.185625 0.9590625 0.185625 0.9590625 0.375 1.9375 C0.684375 2.9584375 0.684375 2.9584375 1 4 C1.66 4.33 2.32 4.66 3 5 C2.01 6.485 2.01 6.485 1 8 C0.34 8 -0.32 8 -1 8 C-1.625 5.125 -1.625 5.125 -2 2 C-1.34 1.34 -0.68 0.68 0 0 Z " fill="#E4E2D9" transform="translate(135,481)"/>
<path d="M0 0 C0.99 0 1.98 0 3 0 C2.67 2.97 2.34 5.94 2 9 C1.34 8.67 0.68 8.34 0 8 C0 5.36 0 2.72 0 0 Z " fill="#F4F3EC" transform="translate(249,471)"/>
<path d="M0 0 C1.65 1.65 3.3 3.3 5 5 C3.68 5.33 2.36 5.66 1 6 C-0.0625 4.125 -0.0625 4.125 -1 2 C-0.67 1.34 -0.34 0.68 0 0 Z " fill="#121B2A" transform="translate(124,598)"/>
<path d="M0 0 C0.598125 0.45375 1.19625 0.9075 1.8125 1.375 C3.50590652 2.63295913 5.24477086 3.82984724 7 5 C4.6875 5.6875 4.6875 5.6875 2 6 C0.1875 4.5625 0.1875 4.5625 -1 3 C-0.67 2.01 -0.34 1.02 0 0 Z " fill="#151A29" transform="translate(878,466)"/>
<path d="M0 0 C0.99 0.33 1.98 0.66 3 1 C2.67 2.65 2.34 4.3 2 6 C1.01 6.33 0.02 6.66 -1 7 C-0.67 4.69 -0.34 2.38 0 0 Z " fill="#E1E0DB" transform="translate(140,440)"/>
<path d="M0 0 C0.99 0.33 1.98 0.66 3 1 C0.63707344 3.52588702 -0.66462511 4.88820837 -4 6 C-2.25 1.125 -2.25 1.125 0 0 Z " fill="#181E28" transform="translate(160,413)"/>
<path d="M0 0 C0.66 0.66 1.32 1.32 2 2 C2.66 1.34 3.32 0.68 4 0 C4.33 0.99 4.66 1.98 5 3 C4.01 4.485 4.01 4.485 3 6 C2.01 6 1.02 6 0 6 C0 4.02 0 2.04 0 0 Z " fill="#D7D5CF" transform="translate(239,547)"/>
<path d="M0 0 C0.33 0 0.66 0 1 0 C1.33 3.3 1.66 6.6 2 10 C1.01 10 0.02 10 -1 10 C-0.67 6.7 -0.34 3.4 0 0 Z " fill="#192131" transform="translate(792,541)"/>
<path d="M0 0 C0.99 0.33 1.98 0.66 3 1 C3 2.32 3 3.64 3 5 C1.35 4.67 -0.3 4.34 -2 4 C-2 3.34 -2 2.68 -2 2 C-1.34 2 -0.68 2 0 2 C0 1.34 0 0.68 0 0 Z " fill="#E8E6DD" transform="translate(591,531)"/>
<path d="M0 0 C3.6875 1.375 3.6875 1.375 7 3 C6.67 3.99 6.34 4.98 6 6 C5.443125 5.525625 4.88625 5.05125 4.3125 4.5625 C1.81653926 2.87604004 -0.0446237 2.41046893 -3 2 C-2.01 1.34 -1.02 0.68 0 0 Z " fill="#DADBDA" transform="translate(242,449)"/>
</svg>
